<svg xmlns="http://www.w3.org/2000/svg" viewBox="0 0 25.8 35.03"><defs><style>.cls-1{fill:#fff;}</style></defs><title>Recurso 1</title><g id="Capa_2" data-name="Capa 2"><g id="Capa_1-2" data-name="Capa 1"><path class="cls-1" d="M25.8,3.63A3.86,3.86,0,0,0,22,0H3.85A3.86,3.86,0,0,0,0,3.85V19.28a.91.91,0,0,0,.2.57l12,14.84a.92.92,0,0,0,.71.34h0a.91.91,0,0,0,.71-.34l12-15.07a.91.91,0,0,0,.2-.57V3.63ZM18,10.1H13.82V1.83H18ZM7.82,1.83H12V10.1h-.91a.91.91,0,0,0-.91.91V12.2l-.26,0a2.09,2.09,0,0,1-2.08-2.08Zm-4,0H6v8.31a2.08,2.08,0,0,1-4.17,0V3.85A2,2,0,0,1,3.85,1.83ZM24,18.74,12.9,32.66,1.83,19V13.44a3.9,3.9,0,0,0,5.08-.8,3.9,3.9,0,0,0,3,1.4h.26v1a.91.91,0,0,0,0,.29A3.86,3.86,0,0,0,14,18.55h1.92l-2.5,3.21a.91.91,0,0,0,1.44,1.12l3.66-4.68a.91.91,0,0,0-.72-1.48H14a2,2,0,0,1-2-2V12.9h0v-1H24v6.8Zm0-8.63H19.81V1.83H22a2,2,0,0,1,2,2Z"/></g></g></svg>